<!-- Alram -->
<svg xmlns="http://www.w3.org/2000/svg" width="56" height="56">
  <path d="M 22.499 36.8 C 22.133 36.8 21.865 37.147 22.001 37.486 C 22.853 39.61 24.912 41.002 27.2 41.002 C 29.488 41.002 31.547 39.61 32.399 37.486 C 32.535 37.146 32.267 36.8 31.901 36.8 L 22.5 36.8 Z M 27.532 13 C 22.893 13 19.132 16.761 19.132 21.4 L 19.132 28.012 C 19.132 28.266 19.063 28.515 18.932 28.732 L 16.204 33.28 C 16.203 33.282 16.201 33.285 16.2 33.287 C 15.642 34.217 16.32 35.4 17.405 35.4 L 37.659 35.4 C 38.743 35.4 39.423 34.218 38.865 33.288 L 38.86 33.28 L 36.131 28.733 C 36 28.516 35.931 28.267 35.931 28.013 L 35.931 21.4 C 35.931 16.761 32.17 13 27.531 13 Z" fill="rgb(255, 255, 255)"></path>
</svg>