<svg xmlns="http://www.w3.org/2000/svg" width="16" height="18">
  <path d="M 1.889 1.101 C 1.725 1.034 1.55 1 1.372 1 C 1.105 1 0.843 1.078 0.621 1.224 C 0.398 1.371 0.225 1.579 0.123 1.823 C 0.021 2.066 -0.006 2.334 0.046 2.592 C 0.099 2.851 0.228 3.088 0.417 3.274 L 6.218 8.989 L 0.417 14.706 C 0.287 14.829 0.183 14.976 0.112 15.139 C 0.04 15.301 0.002 15.476 0 15.654 C -0.002 15.831 0.032 16.007 0.1 16.171 C 0.168 16.335 0.268 16.484 0.395 16.61 C 0.523 16.735 0.674 16.834 0.841 16.901 C 1.007 16.968 1.186 17.002 1.366 17 C 1.546 16.998 1.723 16.961 1.888 16.891 C 2.053 16.82 2.203 16.718 2.327 16.59 L 7.99 11.011 L 13.673 16.609 C 13.798 16.733 13.947 16.832 14.111 16.899 C 14.275 16.966 14.45 17 14.628 17 C 14.895 17 15.157 16.922 15.379 16.776 C 15.602 16.629 15.775 16.421 15.877 16.178 C 15.979 15.934 16.006 15.666 15.954 15.408 C 15.901 15.149 15.772 14.912 15.583 14.726 L 9.782 9.011 L 15.583 3.294 C 15.713 3.171 15.817 3.024 15.888 2.861 C 15.96 2.699 15.998 2.524 16 2.346 C 16.002 2.169 15.968 1.993 15.9 1.829 C 15.832 1.665 15.732 1.516 15.605 1.39 C 15.477 1.265 15.326 1.166 15.159 1.099 C 14.993 1.032 14.814 0.998 14.634 1 C 14.455 1.002 14.277 1.039 14.112 1.11 C 13.947 1.18 13.797 1.282 13.673 1.41 L 8.01 6.989 L 2.327 1.391 C 2.202 1.267 2.053 1.168 1.889 1.101 Z" fill="rgb(194, 202, 250)"></path>
</svg>