<!-- Join -->
<svg xmlns="http://www.w3.org/2000/svg" width="72" height="72">
  <path d="M 18 0 C 8.059 0 0 8.059 0 18 L 0 54 C 0 63.941 8.059 72 18 72 L 54 72 C 63.941 72 72 63.941 72 54 L 72 18 C 72 8.059 63.941 0 54 0 Z M 34.257 18 L 39.201 18 L 38.821 43.362 L 34.638 43.362 L 34.258 18 Z M 36.75 54 C 35.102 53.975 33.73 52.424 33.75 50.503 C 33.73 48.583 35.102 47.007 36.75 47.007 C 38.377 47.007 39.729 48.583 39.75 50.503 C 39.729 52.424 38.377 53.975 36.75 54 Z" fill="rgb(102, 124, 250)"></path>
</svg>