<svg width="231" height="56" viewBox="0 0 231 56" fill="none" xmlns="http://www.w3.org/2000/svg">
<path d="M0.519531 44.1538H23.5657L24.1041 42.5923C18.8811 42.5923 18.1811 41.1923 19.0965 38.0692L22.5965 26.7077C23.9426 27.3 26.4195 27.7846 29.1118 27.7846C39.1811 27.7846 47.2041 20.2462 47.2041 11.2538C47.2041 4.41539 42.6811 1.07693 32.0734 1.07693H13.7118L13.2272 2.63846C17.858 2.63846 18.3965 4.03846 17.4272 7.16154L8.00415 38.0692C7.03492 41.1923 5.04261 42.5923 0.9503 42.5923L0.519531 44.1538ZM26.5272 23.9077C25.2349 23.9077 24.1041 23.5846 23.6195 23.2077L29.1118 5.43846C29.4888 4.41538 30.3503 4.09231 31.6965 4.09231C34.7118 4.09231 36.6503 5.76154 36.6503 9.74615C36.6503 16.4231 32.3426 23.9077 26.5272 23.9077Z" fill="white"/>
<path d="M54.0552 44.1538C61.1091 24.5538 65.0937 21.7538 66.7629 21.7538C67.8937 21.7538 68.5937 22.3462 70.0475 22.3462C72.1475 22.3462 74.4629 19.6 74.4629 16.9077C74.4629 15.1308 73.5475 14.2154 71.8783 14.2154C66.2783 14.2154 62.2937 22.4 57.5552 32.6308H56.9091L59.2783 26.4923C60.7321 23.0462 62.0244 20.4077 62.0244 18.4692C62.0244 16.3154 60.7321 14.3769 57.7168 14.3769C52.7091 14.3769 47.9706 18.4692 44.9014 24.2846H46.4629C49.0475 20.5692 50.6091 18.9538 51.7398 18.9538C52.1168 18.9538 52.3321 19.1692 52.3321 19.7077C52.3321 20.6769 51.2552 23.8538 50.286 26.3846L44.3629 44.1538H54.0552Z" fill="white"/>
<path d="M82.083 45.0154C91.7214 45.0154 99.4214 35.7538 99.4214 25.5769C99.4214 18.5769 94.3599 14.2154 88.0599 14.2154C78.4214 14.2154 70.7214 23.4231 70.7214 33.6538C70.7214 40.6538 75.8368 45.0154 82.083 45.0154ZM81.5984 41.7846C80.3599 41.7846 79.7138 40.7077 79.7138 38.3923C79.7138 30.7462 84.5599 17.3923 88.5984 17.3923C89.8368 17.3923 90.4291 18.4154 90.4291 20.7846C90.4291 28.5385 85.6368 41.7846 81.5984 41.7846Z" fill="white"/>
<path d="M113.16 45.0154C122.799 45.0154 130.499 35.7538 130.499 25.5769C130.499 18.5769 125.437 14.2154 119.137 14.2154C109.499 14.2154 101.799 23.4231 101.799 33.6538C101.799 40.6538 106.914 45.0154 113.16 45.0154ZM112.676 41.7846C111.437 41.7846 110.791 40.7077 110.791 38.3923C110.791 30.7462 115.637 17.3923 119.676 17.3923C120.914 17.3923 121.506 18.4154 121.506 20.7846C121.506 28.5385 116.714 41.7846 112.676 41.7846Z" fill="white"/>
<path d="M157.389 0C149.15 0 143.173 5.70769 139.835 15.1846H135.635L134.881 17.5H139.081L132.619 38.5538C129.281 49.2692 128.419 51.6923 126.696 51.6923C124.758 51.6923 123.573 47.9231 120.665 47.9231C118.404 47.9231 116.035 50.5077 116.035 52.9308C116.035 54.6538 117.165 56 120.719 56C129.712 56 139.835 47.2769 143.065 36.6692L148.935 17.5H154.75L155.45 15.1846H149.581C150.604 11.0385 150.712 7.48461 150.819 5.16923C150.927 3.55385 151.627 3.01539 152.435 3.01539C154.696 3.01539 155.935 7.37693 159.004 7.37693C160.888 7.37693 163.042 5.00769 163.042 3.01539C163.042 0.969233 161.212 0 157.389 0Z" fill="white"/>
<path d="M161.485 45.0154C171.123 45.0154 178.823 35.7538 178.823 25.5769C178.823 18.5769 173.762 14.2154 167.462 14.2154C157.823 14.2154 150.123 23.4231 150.123 33.6538C150.123 40.6538 155.239 45.0154 161.485 45.0154ZM161 41.7846C159.762 41.7846 159.116 40.7077 159.116 38.3923C159.116 30.7462 163.962 17.3923 168 17.3923C169.239 17.3923 169.831 18.4154 169.831 20.7846C169.831 28.5385 165.039 41.7846 161 41.7846Z" fill="white"/>
<path d="M190.301 44.1538C197.355 24.5538 201.339 21.7538 203.008 21.7538C204.139 21.7538 204.839 22.3462 206.293 22.3462C208.393 22.3462 210.708 19.6 210.708 16.9077C210.708 15.1308 209.793 14.2154 208.124 14.2154C202.524 14.2154 198.539 22.4 193.801 32.6308H193.155L195.524 26.4923C196.978 23.0462 198.27 20.4077 198.27 18.4692C198.27 16.3154 196.978 14.3769 193.962 14.3769C188.955 14.3769 184.216 18.4692 181.147 24.2846H182.708C185.293 20.5692 186.855 18.9538 187.985 18.9538C188.362 18.9538 188.578 19.1692 188.578 19.7077C188.578 20.6769 187.501 23.8538 186.531 26.3846L180.608 44.1538H190.301Z" fill="white"/>
<path d="M222.531 45.2846C226.828 45.2846 230.069 40.9877 230.069 37.52C230.069 34.6554 228.109 32.6954 224.868 32.6954C220.646 32.6954 217.329 36.9923 217.329 40.46C217.329 43.3246 219.365 45.2846 222.531 45.2846Z" fill="white"/>
</svg>
