<!-- Profile -->
<svg xmlns="http://www.w3.org/2000/svg" width="56" height="56">
  <path d="M 34.26 20.087 C 34.288 22.28 33.134 24.319 31.239 25.423 C 29.345 26.528 27.002 26.528 25.108 25.423 C 23.213 24.319 22.059 22.28 22.087 20.087 C 22.087 16.725 24.812 14 28.174 14 C 31.536 14 34.261 16.725 34.261 20.087 Z M 40.348 35.304 C 40.348 31.606 34.898 28.609 28.174 28.609 C 21.45 28.609 16 31.606 16 35.304 L 16 36.261 C 16 39.43 19.27 42 23.304 42 L 33.044 42 C 37.078 42 40.348 39.43 40.348 36.26 Z" fill="rgb(255, 255, 255)"></path>
</svg>